<?xml version="1.0" encoding="UTF-8"?>
<svg width="1024" height="1024" version="1.1" viewBox="0 0 1024 1024" xmlns="http://www.w3.org/2000/svg">
 <g fill="#7dda55">
  <path d="m236 236h165v165h-165z"/>
  <path d="m429.5 236c45.6 0 82.5 36.9 82.5 82.5s-36.9 82.5-82.5 82.5-82.5-36.9-82.5-82.5 36.9-82.5 82.5-82.5"/>
  <path d="m622.5 236c45.6 0 82.5 36.9 82.5 82.5s-36.9 82.5-82.5 82.5-82.5-36.9-82.5-82.5 36.9-82.5 82.5-82.5"/>
  <path d="m236 429.5c0-45.6 36.9-82.5 82.5-82.5s82.5 36.9 82.5 82.5-36.9 82.5-82.5 82.5-82.5-36.9-82.5-82.5"/>
  <path d="m429.5 429.5c0-45.6 36.9-82.5 82.5-82.5s82.5 36.9 82.5 82.5-36.9 82.5-82.5 82.5-82.5-36.9-82.5-82.5"/>
  <path d="m622.5 429.5c0-45.6 36.9-82.5 82.5-82.5s82.5 36.9 82.5 82.5-36.9 82.5-82.5 82.5-82.5-36.9-82.5-82.5"/>
  <path d="m236 622.5c0-45.6 36.9-82.5 82.5-82.5s82.5 36.9 82.5 82.5-36.9 82.5-82.5 82.5-82.5-36.9-82.5-82.5"/>
  <path d="m429.5 622.5c0-45.6 36.9-82.5 82.5-82.5s82.5 36.9 82.5 82.5-36.9 82.5-82.5 82.5-82.5-36.9-82.5-82.5"/>
  <path d="m622.5 622.5c0-45.6 36.9-82.5 82.5-82.5s82.5 36.9 82.5 82.5-36.9 82.5-82.5 82.5-82.5-36.9-82.5-82.5"/>
 </g>
</svg>